# xmcd
# 
# Track frame offsets:
#     150
#     29504
#     64481
#     80751
#     92015
#     112045
#     121837
#     136261
#     170096
#     186948
#     202587
#     217377
#     231029
#     258633
#     273735
# 
# Disc length: 3806
# 
# Revision: 0
# Processed by: cddbd v1.5.2PL0 Copyright (c) Steve Scherf et al.
# Submitted via: BonkEnc v1.0.8
# 
DISCID=e90edc0f
DTITLE=Artistes divers  - Blues Story - Vol. 02 - Le Blues Anglais
DYEAR=0
DGENRE=
TTITLE0=Spoonful
TTITLE1=A Fool No More
TTITLE2=All Your Love
TTITLE3=Watermelon Man
TTITLE4=I'm A Man
TTITLE5=Talk To You
TTITLE6=I've Got My Mojo Working
TTITLE7=Love Like A Man
TTITLE8=Milk Cow Blues
TTITLE9=Down In The Boots
TTITLE10=So Much To Say
TTITLE11=I Had A Dream
TTITLE12=Black Magic Wooman (Live)
TTITLE13=Boom Boom
TTITLE14=Steelin'
EXTD=
EXTT0=
EXTT1=
EXTT2=
EXTT3=
EXTT4=
EXTT5=
EXTT6=
EXTT7=
EXTT8=
EXTT9=
EXTT10=
EXTT11=
EXTT12=
EXTT13=
EXTT14=
PLAYORDER=
